<svg width="24" height="24" viewBox="0 0 24 24" fill="none" xmlns="http://www.w3.org/2000/svg">
<path d="M11.4 19C11.4 19 10 19 10 17.5833C10 16.1667 11.4 11.9167 17 11.9167C22.6 11.9167 24 16.1667 24 17.5833C24 19 22.6 19 22.6 19H11.4ZM17 10.5C18.1139 10.5 19.1822 10.0522 19.9698 9.2552C20.7575 8.45817 21.2 7.37717 21.2 6.25C21.2 5.12283 20.7575 4.04183 19.9698 3.2448C19.1822 2.44777 18.1139 2 17 2C15.8861 2 14.8178 2.44777 14.0302 3.2448C13.2425 4.04183 12.8 5.12283 12.8 6.25C12.8 7.37717 13.2425 8.45817 14.0302 9.2552C14.8178 10.0522 15.8861 10.5 17 10.5Z" fill="white"/>
<path fill-rule="evenodd" clip-rule="evenodd" d="M8.52018 19C8.30645 18.563 8.19986 18.0838 8.20877 17.6001C8.20877 15.7033 9.18916 13.7504 11 12.3926C10.0962 12.1222 9.15448 11.9899 8.20877 12.0006C2.44175 12.0006 1 16.2002 1 17.6001C1 19 2.44175 19 2.44175 19H8.52018Z" fill="white"/>
<path d="M7.5 10C8.42826 10 9.3185 9.63125 9.97487 8.97487C10.6313 8.3185 11 7.42826 11 6.5C11 5.57174 10.6313 4.6815 9.97487 4.02513C9.3185 3.36875 8.42826 3 7.5 3C6.57174 3 5.6815 3.36875 5.02513 4.02513C4.36875 4.6815 4 5.57174 4 6.5C4 7.42826 4.36875 8.3185 5.02513 8.97487C5.6815 9.63125 6.57174 10 7.5 10V10Z" fill="white"/>
</svg>
