<svg width="18" height="18" viewBox="0 0 18 18" fill="none" xmlns="http://www.w3.org/2000/svg">
<path d="M16.3536 3.76355L16.7071 3.41L16.3536 3.05645L14.9436 1.64645L14.59 1.29289L14.2364 1.64645L9 6.88289L3.76355 1.64645L3.41 1.29289L3.05645 1.64645L1.64645 3.05645L1.29289 3.41L1.64645 3.76355L6.88289 9L1.64645 14.2364L1.29289 14.59L1.64645 14.9436L3.05645 16.3536L3.41 16.7071L3.76355 16.3536L9 11.1171L14.2364 16.3536L14.59 16.7071L14.9436 16.3536L16.3536 14.9436L16.7071 14.59L16.3536 14.2364L11.1171 9L16.3536 3.76355Z" fill="#C92A2D" stroke="#C92A2D"/>
</svg>
